<?xml version="1.0" encoding="utf-8"?>
<!-- Generator: Adobe Illustrator 19.0.0, SVG Export Plug-In . SVG Version: 6.00 Build 0)  -->
<svg version="1.1" baseProfile="tiny" id="图层_1"
	 xmlns="http://www.w3.org/2000/svg" xmlns:xlink="http://www.w3.org/1999/xlink" x="0px" y="0px" viewBox="0 0 173.5 40"
	 xml:space="preserve">
<g id="XMLID_5_">
	<path id="XMLID_7_" fill="#FFFFFF" d="M27.916,30.878c0,0.172-0.136,0.415-0.408,0.73c-2.791,3.234-6.248,4.853-10.37,4.853
		c-4.294,0-7.73-1.567-10.306-4.702c-2.405-2.921-3.607-6.57-3.607-10.951c0-4.38,1.224-8.044,3.672-10.993
		C9.5,6.638,12.943,5.049,17.223,5.049c4.337,0,7.694,1.467,10.07,4.401c0.229,0.301,0.343,0.551,0.343,0.751
		c0,0.244-0.379,0.963-1.138,2.158c-0.759,1.195-1.217,1.793-1.375,1.793c-0.186,0-0.623-0.351-1.31-1.052
		c-0.845-0.859-1.639-1.503-2.383-1.932c-1.231-0.701-2.591-1.052-4.08-1.052c-2.834,0-5.039,1.081-6.613,3.242
		c-1.403,1.932-2.104,4.366-2.104,7.3s0.694,5.389,2.083,7.364c1.574,2.219,3.771,3.328,6.591,3.328
		c1.403,0,2.755-0.351,4.058-1.052c0.859-0.458,1.732-1.109,2.62-1.954c0.744-0.701,1.152-1.053,1.224-1.053
		c0.086,0,0.558,0.569,1.417,1.707C27.486,30.138,27.916,30.764,27.916,30.878z"/>
	<path id="XMLID_9_" fill="#FFFFFF" d="M51.125,16.407c0,0.057-0.021,0.186-0.064,0.386c-0.558,3.278-0.837,6.105-0.837,8.481
		c0,0.143,0.179,3.356,0.536,9.641l0.021,0.3c0.015,0.416-0.175,0.623-0.568,0.623c-0.395,0-0.988,0.046-1.782,0.14
		c-0.795,0.093-1.385,0.14-1.771,0.14c-0.272,0-0.479-0.501-0.623-1.503s-0.279-1.503-0.408-1.503c-0.085,0-0.472,0.279-1.159,0.837
		c-0.845,0.688-1.632,1.21-2.362,1.567c-1.131,0.572-2.262,0.859-3.393,0.859c-2.777,0-5.117-1.109-7.021-3.328
		c-1.803-2.118-2.705-4.588-2.705-7.407c0-3.178,0.909-5.805,2.727-7.88c1.904-2.161,4.409-3.242,7.515-3.242
		c2.19,0,4.101,0.759,5.732,2.276c0.243,0.287,0.623,0.702,1.138,1.246c0.043,0.043,0.086,0.064,0.129,0.064
		c0.086,0,0.208-0.451,0.365-1.353c0.157-0.902,0.358-1.353,0.602-1.353c0.386,0,1.108,0.107,2.168,0.322
		C50.538,15.978,51.125,16.207,51.125,16.407z M45.65,25.382c0-1.761-0.522-3.271-1.567-4.531c-1.102-1.359-2.512-2.04-4.229-2.04
		s-3.149,0.673-4.294,2.018c-1.102,1.289-1.653,2.806-1.653,4.552c0,1.731,0.551,3.234,1.653,4.509
		c1.145,1.331,2.577,1.997,4.294,1.997c1.675,0,3.077-0.68,4.208-2.04C45.121,28.573,45.65,27.085,45.65,25.382z"/>
	<path id="XMLID_12_" fill="#FFFFFF" d="M66.585,31.888c0,0.314-0.029,0.744-0.086,1.288c-0.072,0.673-0.115,1.109-0.129,1.31
		c-0.015,0.258-0.036,0.415-0.064,0.473c-0.058,0.1-0.193,0.2-0.408,0.3c-1.174,0.559-3.02,0.838-5.539,0.838
		c-3.35,0-5.024-1.518-5.024-4.552c0-1.217,0.028-3.046,0.086-5.486c0.057-2.44,0.086-4.269,0.086-5.485
		c0-0.587-0.294-0.902-0.88-0.945c-0.53,0-1.053-0.007-1.567-0.021c-0.301-0.071-0.451-0.658-0.451-1.761
		c0-0.415,0.028-0.852,0.086-1.31c0.043-0.344,0.271-0.551,0.687-0.623c0.358,0,0.709-0.007,1.053-0.021
		c0.658-0.029,0.987-0.322,0.987-0.88c0-0.572-0.018-1.446-0.054-2.62c-0.036-1.173-0.054-2.054-0.054-2.641
		c0-1.045,0.2-1.567,0.602-1.567c0.129,0,1.474,0.222,4.036,0.666c0.329,0.043,0.494,0.201,0.494,0.472
		c0,0.63-0.047,1.575-0.14,2.834c-0.094,1.26-0.14,2.205-0.14,2.834c0,0.415,0.193,0.623,0.58,0.623h5.152
		c0.243,0,0.365,0.086,0.365,0.258c0,0.171-0.025,0.447-0.075,0.827s-0.075,0.662-0.075,0.848c0,0.214,0.007,0.544,0.021,0.987
		c0.015,0.444,0.021,0.773,0.021,0.988c0,0.272-0.2,0.408-0.601,0.408c-0.573,0-1.439-0.039-2.599-0.118s-2.025-0.118-2.598-0.118
		c-0.115,0-0.201,0.408-0.258,1.224c-0.071,1.016-0.107,2.441-0.107,4.273v3.199c0,1.231,0.114,2.09,0.344,2.576
		c0.344,0.744,1.052,1.116,2.126,1.116c0.443,0,1.095-0.097,1.953-0.289c0.859-0.193,1.496-0.29,1.911-0.29
		C66.499,31.501,66.585,31.63,66.585,31.888z"/>
	<path id="XMLID_14_" fill="#FFFFFF" d="M94.304,6.187c0,1.661-0.068,4.147-0.204,7.461c-0.137,3.313-0.204,5.801-0.204,7.461
		c0,0.543,0.007,1.355,0.021,2.437c0.014,1.081,0.021,1.886,0.021,2.415c0,2.992-0.279,5.067-0.837,6.227
		c-0.859,1.775-2.527,2.978-5.003,3.607c-1.518,0.387-3.657,0.58-6.42,0.58c-5.01,0-8.295-0.83-9.855-2.491
		c-1.202-1.288-1.804-3.864-1.804-7.729c0-0.472,0.008-1.27,0.021-2.394c0.015-1.124,0.021-2.008,0.021-2.651
		c0-1.689-0.071-4.803-0.215-9.34c0-1.173-0.063-2.927-0.192-5.26c-0.015-0.172-0.021-0.286-0.021-0.344
		c0-0.3,0.186-0.451,0.558-0.451c0.587,0,1.382,0.007,2.384,0.021c1.159,0.014,1.946,0.021,2.361,0.021
		c0.329,0,0.494,0.128,0.494,0.386c0,2.176-0.047,5.447-0.14,9.813c-0.094,4.366-0.14,7.637-0.14,9.812
		c0,2.463,0.551,4.13,1.653,5.003c0.944,0.773,2.684,1.16,5.218,1.16c2.304,0,3.943-0.315,4.916-0.945
		c1.231-0.787,1.847-2.262,1.847-4.423c0-2.262-0.035-5.658-0.107-10.188c-0.071-4.53-0.107-7.926-0.107-10.188
		c0-0.229,0.208-0.372,0.623-0.429c0.301-0.043,0.73-0.043,1.288,0c0.658,0.057,0.974,0.086,0.945,0.086
		c0.257,0,0.647-0.021,1.17-0.064s0.912-0.064,1.17-0.064C94.124,5.714,94.304,5.872,94.304,6.187z"/>
	<path id="XMLID_43_" fill="#FFFFFF" d="M104.631,35.387c0,0.301-0.208,0.451-0.623,0.451c-0.258,0-0.651-0.021-1.181-0.064
		c-0.53-0.043-0.923-0.064-1.181-0.064c-0.272,0-0.673,0.021-1.203,0.064c-0.529,0.043-0.923,0.064-1.181,0.064
		c-0.357,0-0.536-0.164-0.536-0.494c0-1.632,0.075-4.09,0.225-7.375c0.15-3.285,0.226-5.75,0.226-7.396
		c0-1.589-0.075-3.976-0.226-7.161c-0.149-3.185-0.225-5.572-0.225-7.161c0-0.357,0.164-0.537,0.493-0.537
		c0.272,0,0.688,0.021,1.245,0.064c0.559,0.043,0.98,0.064,1.268,0.064c0.257,0,0.644-0.021,1.159-0.064s0.901-0.064,1.159-0.064
		c0.372,0,0.559,0.143,0.559,0.429c0,1.604-0.058,4.008-0.172,7.214c-0.115,3.207-0.172,5.611-0.172,7.214
		c0,1.646,0.061,4.115,0.183,7.407C104.569,31.271,104.631,33.741,104.631,35.387z"/>
	<path id="XMLID_45_" fill="#FFFFFF" d="M114.916,32.682c0,0.944-0.319,1.771-0.956,2.479c-0.637,0.709-1.42,1.063-2.351,1.063
		s-1.711-0.365-2.341-1.096c-0.601-0.687-0.901-1.503-0.901-2.447c0-0.959,0.308-1.778,0.923-2.458
		c0.616-0.68,1.389-1.021,2.319-1.021c0.944,0,1.731,0.344,2.361,1.031C114.601,30.921,114.916,31.737,114.916,32.682z"/>
	<path id="XMLID_47_" fill="#FFFFFF" d="M123.977,6.058l-0.021,0.279c-0.314,5.325-0.473,9.898-0.473,13.72
		c0,1.703,0.029,4.255,0.086,7.654c0.058,3.4,0.086,5.944,0.086,7.633c0,0.33-0.114,0.494-0.343,0.494h-4.102
		c-0.258,0-0.387-0.164-0.387-0.494c0-1.688,0.015-4.232,0.043-7.633c0.029-3.399,0.043-5.951,0.043-7.654
		c0-1.546-0.075-3.868-0.225-6.967c-0.15-3.099-0.226-5.414-0.226-6.946c0-0.286,0.15-0.429,0.45-0.429
		c0.258,0,0.645,0.021,1.16,0.064c0.515,0.043,0.901,0.064,1.159,0.064c0.271,0,0.673-0.021,1.202-0.064s0.924-0.064,1.181-0.064
		C123.869,5.714,123.991,5.829,123.977,6.058z"/>
	<path id="XMLID_49_" fill="#FFFFFF" d="M133.81,10.159c0,1.761-0.98,2.641-2.941,2.641c-1.99,0-2.984-0.88-2.984-2.641
		c0-0.787,0.308-1.438,0.923-1.954c0.572-0.486,1.26-0.73,2.062-0.73s1.492,0.251,2.072,0.751
		C133.52,8.728,133.81,9.372,133.81,10.159z M133.659,15.978c0,1.102-0.068,2.766-0.204,4.992c-0.136,2.226-0.204,3.897-0.204,5.013
		c0,1.045,0.021,2.609,0.064,4.691c0.043,2.083,0.064,3.64,0.064,4.67c0,0.301-0.129,0.451-0.386,0.451h-4.188
		c-0.301,0-0.45-0.293-0.45-0.88c0-0.988,0.024-2.473,0.074-4.456c0.051-1.981,0.075-3.475,0.075-4.477
		c0-1.116-0.082-2.791-0.246-5.024c-0.165-2.233-0.247-3.908-0.247-5.024c0-0.244,0.15-0.365,0.45-0.365
		c0.258,0,0.655,0.036,1.192,0.107c0.536,0.072,0.94,0.107,1.213,0.107c0.271,0,0.676-0.036,1.213-0.107
		c0.537-0.071,0.941-0.107,1.213-0.107C133.537,15.569,133.659,15.706,133.659,15.978z"/>
	<path id="XMLID_52_" fill="#FFFFFF" d="M149.87,31.888c0,0.314-0.029,0.744-0.086,1.288c-0.072,0.673-0.115,1.109-0.129,1.31
		c-0.015,0.258-0.036,0.415-0.064,0.473c-0.058,0.1-0.193,0.2-0.408,0.3c-1.174,0.559-3.02,0.838-5.539,0.838
		c-3.35,0-5.024-1.518-5.024-4.552c0-1.217,0.028-3.046,0.086-5.486c0.057-2.44,0.086-4.269,0.086-5.485
		c0-0.587-0.294-0.902-0.88-0.945c-0.53,0-1.053-0.007-1.567-0.021c-0.301-0.071-0.451-0.658-0.451-1.761
		c0-0.415,0.028-0.852,0.086-1.31c0.043-0.344,0.271-0.551,0.687-0.623c0.358,0,0.709-0.007,1.053-0.021
		c0.658-0.029,0.987-0.322,0.987-0.88c0-0.572-0.018-1.446-0.054-2.62c-0.036-1.173-0.054-2.054-0.054-2.641
		c0-1.045,0.2-1.567,0.602-1.567c0.129,0,1.474,0.222,4.036,0.666c0.329,0.043,0.494,0.201,0.494,0.472
		c0,0.63-0.047,1.575-0.14,2.834c-0.094,1.26-0.14,2.205-0.14,2.834c0,0.415,0.193,0.623,0.58,0.623h5.152
		c0.243,0,0.365,0.086,0.365,0.258c0,0.171-0.025,0.447-0.075,0.827s-0.075,0.662-0.075,0.848c0,0.214,0.007,0.544,0.021,0.987
		c0.015,0.444,0.021,0.773,0.021,0.988c0,0.272-0.2,0.408-0.601,0.408c-0.573,0-1.439-0.039-2.599-0.118s-2.025-0.118-2.598-0.118
		c-0.115,0-0.201,0.408-0.258,1.224c-0.071,1.016-0.107,2.441-0.107,4.273v3.199c0,1.231,0.114,2.09,0.344,2.576
		c0.344,0.744,1.052,1.116,2.126,1.116c0.443,0,1.095-0.097,1.953-0.289c0.859-0.193,1.496-0.29,1.911-0.29
		C149.784,31.501,149.87,31.63,149.87,31.888z"/>
	<path id="XMLID_54_" fill="#FFFFFF" d="M171.126,24.308c0,1.06-0.458,1.769-1.374,2.126c-0.616,0.229-5.046,0.651-13.291,1.267
		c0.187,1.26,0.881,2.334,2.083,3.221c1.145,0.845,2.376,1.267,3.693,1.267c2.261,0,4.337-0.729,6.227-2.189
		c0.229-0.187,0.458-0.372,0.687-0.559c0.114,0,0.189,0.015,0.226,0.043c0.035,0.029,0.304,0.526,0.806,1.492
		c0.5,0.967,0.751,1.485,0.751,1.557c0,0.086-0.114,0.251-0.344,0.494c-2.104,2.232-4.802,3.35-8.095,3.35
		c-3.32,0-5.969-0.991-7.943-2.974c-1.976-1.982-2.964-4.627-2.964-7.934c0-2.949,0.945-5.519,2.835-7.708
		c1.989-2.276,4.43-3.414,7.321-3.414c2.69,0,4.938,0.987,6.742,2.963C170.245,19.227,171.126,21.56,171.126,24.308z
		 M166.016,22.998c0-1.188-0.469-2.24-1.406-3.156s-1.993-1.375-3.167-1.375c-1.317,0-2.487,0.53-3.511,1.589
		c-1.023,1.06-1.535,2.247-1.535,3.564c0,0.301,0.258,0.451,0.773,0.451c2.118,0,4.651-0.215,7.601-0.645
		C165.601,23.313,166.016,23.17,166.016,22.998z"/>
</g>
</svg>
