<?xml version="1.0" encoding="utf-8"?>
<!-- Generator: Adobe Illustrator 19.0.0, SVG Export Plug-In . SVG Version: 6.00 Build 0)  -->
<svg version="1.1" baseProfile="tiny" id="图层_1"
	 xmlns="http://www.w3.org/2000/svg" xmlns:xlink="http://www.w3.org/1999/xlink" x="0px" y="0px" viewBox="0 0 120 45"
	 xml:space="preserve">
<path id="XMLID_155_" fill="#E6E6E6" d="M46.71,16.78c-6.38,1.77-12.01,4.8-16.98,8.65C25.72,16.71,19.77,9.93,11,5
	C20.95,5,36.18,8.64,46.71,16.78z"/>
<path id="XMLID_157_" fill="#E6E6E6" d="M109,5c-8.79,4.96-14.68,11.72-18.71,20.38c-4.97-3.85-10.61-6.86-17-8.61
	C84.26,7.95,99.26,5,109,5z"/>
<g id="XMLID_124_">
	<path id="XMLID_123_" fill="none" stroke="#FFFFFF" stroke-width="3" stroke-miterlimit="10" d="M73,17C84,8,99.167,5,109,5
		c-1.984,14.984,0.125,24.063-5,35c-9.917-14-23.958-25-44-25c-19.969,0-34,11.063-44,25c-4.979-10.979-2.979-20-5-35
		c10.042,0,25.461,3.712,36,12"/>
	<path id="XMLID_125_" fill="none" stroke="#FFFFFF" stroke-width="2" stroke-miterlimit="10" d="M11,5c8.958,5.042,14.979,12,19,21
		"/>
	<path id="XMLID_126_" fill="none" stroke="#FFFFFF" stroke-width="2" stroke-miterlimit="10" d="M109,5
		c-9,5.083-14.958,12.042-19,21"/>
</g>
</svg>
