<?xml version="1.0" encoding="utf-8"?>
<!-- Generator: Adobe Illustrator 19.0.0, SVG Export Plug-In . SVG Version: 6.00 Build 0)  -->
<svg version="1.2" baseProfile="tiny" id="图层_1"
	 xmlns="http://www.w3.org/2000/svg" xmlns:xlink="http://www.w3.org/1999/xlink" x="0px" y="0px" viewBox="0 0 163.6 50"
	 xml:space="preserve">
<g id="XMLID_362_">
	<g id="XMLID_374_">
		<g id="XMLID_437_">
			<path id="XMLID_440_" fill="#FFFFFF" d="M82.8,11.6v1.1h8v7.1h-2.6l0.1-1h-4.1l-1,10.7h4.3l0.1-0.4h3.2l-0.4,7.1
				c0,0-0.2,2.3-2.9,2.2h-4.7l4.3,1.8v2.6c0,0,6.9,0.2,7.3-6l0.4-8.5h-7.2l0.6-7.8h2.7v1h4V11.6H82.8z"/>
			<path id="XMLID_439_" fill="#FFFFFF" d="M102.4,8.4l4.7,4.7c0,0,3.6-1.8,1-3.8c0,0-1-0.9-2.6-1.2C104.6,7.8,103.5,7.9,102.4,8.4z
				"/>
			<path id="XMLID_438_" fill="#FFFFFF" d="M95.6,14.7h7.1l-5.7,10.1h-1.5l1.6,4.7l8.5-2.8l-6.5,11h-3l1.5,5.2l15.4-3.5l1.4,3.4
				c5.5-2,2.8-5.9,2.4-6.4c-2.6-3.9-7.5-6.1-7.5-6.1l2.9,7.4h-11.1l12.4-16.1h-5l-1.9,3.1h-7.2l8.9-10.1h9.2v-0.9H95.6V14.7z"/>
		</g>
		<polygon id="XMLID_436_" fill="#FFFFFF" points="10.3,15.8 24.1,14.3 24.1,24.2 8.9,24.2 8.9,25.1 24.1,25.1 24.1,42.9 29.4,42.9 
			29.4,25.1 43.6,25.1 43.6,24.1 29.4,24.1 29.4,13.7 41.4,12.4 40.1,7.9 		"/>
		<path id="XMLID_433_" fill="#FFFFFF" d="M68,32l0.1-9.8h10.3v-0.9H68.1v-8h11.1v-1H56.7C58.2,10.3,59,8,59,8h-5.8
			c-1,5.9-6.5,14.4-6.5,14.4c6.4-4.6,9.4-9.3,9.4-9.3H63v8.3h-6.5V20h-4.8v12H46V33H63v9.9h4.9L68,32.8h12.8V32L68,32z M63,32h-6.5
			v-9.8H63V32z"/>
		<g id="XMLID_420_">
			<polygon id="XMLID_432_" fill="#FFFFFF" points="131.8,23.6 135.7,23.6 135.7,11.3 137.4,11.3 137.4,10.5 120.8,10.5 120.8,11.3 
				131.8,11.3 			"/>
			<path id="XMLID_429_" fill="#FFFFFF" d="M130.2,21.8v-7.2h-5.5v-1h-3.1v9.1h3.1v-1.5h2.2v0.6H130.2z M124.6,20.5v-5.2h2.3v5.2
				H124.6z"/>
			<path id="XMLID_428_" fill="#FFFFFF" d="M135.7,37.6V25.5h2.7v-0.9h-18.5v0.9h11.9v11.8c0,1-1.2,1.3-1.2,1.3h-4.3l3.9,2l-0.1,2.4
				C136.2,42.9,135.7,37.6,135.7,37.6z"/>
			<path id="XMLID_425_" fill="#FFFFFF" d="M127.1,35.8h3.2v-8h-5.7V27h-3.3v10.4h3.2v-2.2h2.6L127.1,35.8L127.1,35.8z M124.6,34.5
				v-5.9h2.6v5.9H124.6z"/>
			<path id="XMLID_424_" fill="#FFFFFF" d="M142.3,15.1h6.6c-0.1,0.9-1.7,7.3-1.7,7.3c5-3.7,6.9-10.1,6.9-10.1h-4.7l-0.3,2h-6.4
				c0.3-0.5,1.9-6.4,1.9-6.4h-5c-1,10.6-2.9,15-2.9,15C140.3,20.1,142.3,15.1,142.3,15.1z"/>
			<path id="XMLID_423_" fill="#FFFFFF" d="M146.7,22.2v-3.9h-4.6c-0.4,15-7.8,24.6-7.8,24.6c8.9-3.1,10.1-17.9,10.1-17.9
				c0,7.1,8,17.9,8,17.9l2.5-4.4C147.6,31.3,146.7,22.2,146.7,22.2z"/>
		</g>
	</g>
</g>
</svg>
